<svg width="300" height="288" viewBox="0 0 300 288" fill="none" xmlns="http://www.w3.org/2000/svg">
<path d="M102.584 75.52C46.5623 91.0534 13.7207 149.13 29.2303 205.238C44.74 261.346 102.728 294.238 158.749 278.704C214.771 263.171 247.613 205.094 232.103 148.986C216.593 92.8785 158.606 59.9865 102.584 75.52Z" fill="#1A1A1A"/>
<path d="M167.592 106.171L169.59 105.161C169.695 105.132 169.877 104.967 169.819 104.755L169.656 102.52C169.674 102.173 169.827 101.903 170.144 101.815C170.462 101.727 170.837 101.851 170.925 102.168L171.933 104.169C171.963 104.275 172.127 104.457 172.338 104.399L174.57 104.236C174.917 104.254 175.187 104.407 175.274 104.725C175.362 105.042 175.239 105.419 174.921 105.507L172.924 106.516C172.818 106.546 172.636 106.71 172.695 106.922L172.857 109.157C172.839 109.504 172.686 109.775 172.369 109.863C172.052 109.95 171.676 109.827 171.588 109.509L170.58 107.508C170.551 107.403 170.386 107.22 170.175 107.279L167.943 107.441C167.597 107.424 167.327 107.27 167.239 106.953C167.18 106.741 167.304 106.365 167.592 106.171Z" fill="#454850"/>
<path d="M71.688 117.676L73.5923 116.713C73.6931 116.685 73.8668 116.528 73.811 116.326L73.656 114.196C73.6731 113.865 73.8189 113.607 74.1213 113.523C74.4237 113.439 74.7819 113.557 74.8656 113.86L75.8269 115.767C75.8548 115.868 76.0114 116.042 76.213 115.986L78.3405 115.831C78.6708 115.848 78.9282 115.994 79.0119 116.297C79.0956 116.6 78.9777 116.959 78.6753 117.043L76.7711 118.005C76.6703 118.033 76.4966 118.19 76.5524 118.392L76.7073 120.523C76.6902 120.854 76.5444 121.111 76.2421 121.195C75.9397 121.279 75.5815 121.161 75.4978 120.858L74.5365 118.951C74.5086 118.85 74.352 118.676 74.1504 118.732L72.0229 118.887C71.6926 118.87 71.4352 118.724 71.3515 118.421C71.2678 118.118 71.3856 117.76 71.688 117.676Z" fill="#454850"/>
<path d="M139.906 138.56L141.444 137.782C141.525 137.759 141.666 137.633 141.621 137.47L141.496 135.749C141.509 135.481 141.627 135.273 141.871 135.206C142.115 135.138 142.405 135.233 142.472 135.478L143.249 137.018C143.271 137.1 143.398 137.24 143.561 137.195L145.279 137.07C145.546 137.084 145.754 137.202 145.821 137.446C145.889 137.691 145.794 137.98 145.549 138.048L144.011 138.826C143.93 138.848 143.79 138.975 143.835 139.138L143.96 140.859C143.946 141.126 143.828 141.334 143.584 141.402C143.34 141.47 143.051 141.375 142.983 141.13L142.207 139.59C142.184 139.508 142.058 139.368 141.895 139.413L140.176 139.538C139.91 139.524 139.702 139.406 139.634 139.162C139.508 139.021 139.684 138.709 139.906 138.56Z" fill="#454850"/>
<path d="M79.3131 247.047L82.0744 245.651C82.2206 245.61 82.4724 245.383 82.3915 245.09L82.1669 242C82.1916 241.521 82.403 241.147 82.8415 241.025C83.28 240.904 83.7994 241.075 83.9208 241.514L85.3146 244.28C85.3551 244.426 85.5822 244.678 85.8745 244.597L88.9595 244.372C89.4384 244.397 89.8117 244.609 89.9331 245.048C90.0545 245.487 89.8836 246.007 89.4451 246.129L86.6838 247.525C86.5376 247.565 86.2858 247.793 86.3667 248.086L86.5914 251.175C86.5666 251.655 86.3552 252.029 85.9167 252.15C85.4782 252.272 84.9589 252.101 84.8375 251.662L83.4436 248.896C83.4031 248.75 83.176 248.497 82.8837 248.578L79.7987 248.803C79.3197 248.779 78.9465 248.567 78.8251 248.128C78.7037 247.689 78.9151 247.315 79.3131 247.047Z" fill="#454850"/>
<path d="M92.0241 213.656L94.7854 212.26C94.9315 212.22 95.1834 211.992 95.1024 211.699L94.8778 208.61C94.9026 208.13 95.1139 207.756 95.5524 207.635C95.9909 207.513 96.5103 207.684 96.6317 208.123L98.0256 210.889C98.066 211.035 98.2931 211.288 98.5855 211.207L101.67 210.982C102.149 211.006 102.523 211.218 102.644 211.657C102.765 212.096 102.594 212.617 102.156 212.738L99.3947 214.134C99.2486 214.175 98.9967 214.402 99.0776 214.695L99.3023 217.785C99.2775 218.264 99.0661 218.638 98.6277 218.76C98.1892 218.881 97.6698 218.71 97.5484 218.271L96.1545 215.505C96.114 215.359 95.8869 215.107 95.5946 215.188L92.5096 215.413C92.0307 215.388 91.6574 215.176 91.5361 214.737C91.4147 214.298 91.626 213.924 92.0241 213.656Z" fill="#454850"/>
<path d="M219.409 173.867L220.855 171.694C220.946 171.603 221.036 171.331 220.855 171.15L219.409 168.977C219.228 168.615 219.228 168.252 219.499 167.981C219.77 167.709 220.222 167.619 220.494 167.89L222.664 169.339C222.754 169.43 223.025 169.52 223.206 169.339L225.376 167.89C225.738 167.709 226.1 167.709 226.371 167.981C226.642 168.252 226.732 168.705 226.461 168.977L225.015 171.15C224.924 171.241 224.834 171.512 225.015 171.694L226.461 173.867C226.642 174.229 226.642 174.591 226.371 174.863C226.1 175.135 225.647 175.225 225.376 174.954L223.206 173.505C223.116 173.414 222.845 173.324 222.664 173.505L220.494 174.954C220.132 175.135 219.77 175.135 219.499 174.863C219.228 174.591 219.137 174.139 219.409 173.867Z" fill="#454850"/>
<path d="M79.567 158.364L81.4183 154.645C81.543 154.484 81.6317 154.038 81.3102 153.788L78.5949 150.646C78.2375 150.11 78.1655 149.539 78.5396 149.056C78.9137 148.573 79.6092 148.34 80.0914 148.715L83.8043 150.569C83.965 150.694 84.4112 150.782 84.6606 150.46L87.7975 147.741C88.3323 147.383 88.9032 147.311 89.3853 147.686C89.8674 148.06 90.1001 148.757 89.726 149.24L87.8747 152.958C87.75 153.119 87.6613 153.566 87.9828 153.816L90.6981 156.958C91.0555 157.493 91.1275 158.065 90.7534 158.548C90.3793 159.031 89.6838 159.264 89.2016 158.889L85.4887 157.035C85.3279 156.91 84.8818 156.821 84.6324 157.143L81.4955 159.863C80.9607 160.221 80.3898 160.293 79.9077 159.918C79.4256 159.543 79.1929 158.847 79.567 158.364Z" fill="#808080"/>
<path d="M116.444 268.209L119.038 266.897C119.175 266.859 119.412 266.646 119.336 266.371L119.125 263.469C119.148 263.018 119.346 262.667 119.758 262.553C120.17 262.439 120.658 262.599 120.772 263.012L122.081 265.609C122.119 265.747 122.332 265.984 122.607 265.908L125.505 265.696C125.954 265.72 126.305 265.919 126.419 266.331C126.533 266.743 126.373 267.232 125.961 267.346L123.367 268.658C123.23 268.696 122.993 268.909 123.069 269.184L123.28 272.086C123.257 272.537 123.058 272.888 122.647 273.002C122.235 273.116 121.747 272.956 121.633 272.543L120.324 269.945C120.286 269.808 120.072 269.571 119.798 269.647L116.9 269.859C116.45 269.835 116.1 269.636 115.986 269.224C115.872 268.811 116.032 268.323 116.444 268.209Z" fill="#454850"/>
<path d="M66.5866 201.76L68.3907 198.556C68.5082 198.419 68.6067 198.028 68.3338 197.793L66.0745 194.892C65.7826 194.403 65.7446 193.894 66.0971 193.484C66.4496 193.074 67.075 192.899 67.4845 193.252L70.6838 195.059C70.8203 195.177 71.2107 195.276 71.4457 195.002L74.3415 192.739C74.8305 192.447 75.3384 192.409 75.7478 192.762C76.1572 193.115 76.3316 193.741 75.9791 194.152L74.175 197.356C74.0575 197.492 73.959 197.884 74.2319 198.119L76.4913 201.019C76.7832 201.509 76.8211 202.018 76.4686 202.428C76.1161 202.838 75.4907 203.012 75.0813 202.659L71.882 200.852C71.7455 200.735 71.3551 200.636 71.1201 200.909L68.2242 203.172C67.7352 203.465 67.2273 203.503 66.8179 203.15C66.4085 202.797 66.2341 202.17 66.5866 201.76Z" fill="#808080"/>
<path d="M111.841 101.807L115.227 100.169C115.552 100.079 115.624 99.7098 115.579 99.5475L115.24 95.7966C115.268 95.2647 115.619 94.6429 116.105 94.5081C116.592 94.3733 117.168 94.5631 117.509 95.1675L119.145 98.5588C119.234 98.8835 119.603 98.9559 119.765 98.911L123.511 98.5716C124.042 98.5991 124.662 98.9513 124.797 99.4383C124.932 99.9252 124.742 100.502 124.139 100.844L120.753 102.482C120.428 102.572 120.356 102.942 120.401 103.104L120.74 106.855C120.712 107.387 120.361 108.008 119.875 108.143C119.388 108.278 118.812 108.088 118.471 107.484L116.835 104.093C116.746 103.768 116.377 103.695 116.214 103.74L112.469 104.08C111.938 104.052 111.317 103.7 111.183 103.213C111.003 102.564 111.193 101.987 111.841 101.807Z" fill="#454850"/>
<path d="M190.95 138.364L192.651 137.541C192.814 137.496 192.85 137.311 192.827 137.229L192.657 135.345C192.671 135.078 192.848 134.766 193.092 134.698C193.336 134.63 193.625 134.725 193.797 135.029L194.618 136.732C194.664 136.896 194.849 136.932 194.93 136.909L196.811 136.739C197.078 136.753 197.39 136.93 197.458 137.174C197.525 137.419 197.43 137.709 197.127 137.88L195.426 138.703C195.263 138.748 195.227 138.934 195.25 139.015L195.42 140.899C195.406 141.167 195.229 141.479 194.985 141.547C194.741 141.614 194.452 141.519 194.28 141.216L193.459 139.512C193.413 139.349 193.228 139.313 193.147 139.335L191.266 139.506C190.999 139.492 190.687 139.315 190.619 139.07C190.552 138.826 190.728 138.513 190.95 138.364Z" fill="#454850"/>
<path d="M175.838 244.171L179.671 242.317C180.038 242.215 180.12 241.796 180.069 241.613L179.686 237.367C179.717 236.765 180.115 236.061 180.665 235.909C181.216 235.756 181.868 235.971 182.254 236.655L184.105 240.494C184.207 240.861 184.625 240.943 184.808 240.892L189.047 240.508C189.648 240.539 190.351 240.938 190.504 241.489C190.656 242.04 190.441 242.693 189.758 243.08L185.925 244.934C185.559 245.036 185.477 245.455 185.527 245.638L185.911 249.884C185.88 250.486 185.482 251.19 184.932 251.343C184.381 251.495 183.729 251.28 183.343 250.596L181.491 246.757C181.39 246.39 180.972 246.308 180.789 246.359L176.55 246.743C175.948 246.712 175.246 246.313 175.093 245.762C174.941 245.211 175.155 244.558 175.838 244.171Z" fill="#808080"/>
<path d="M123.715 190.753L127.548 188.899C127.915 188.797 127.997 188.379 127.946 188.195L127.563 183.95C127.594 183.347 127.992 182.644 128.542 182.491C129.093 182.338 129.745 182.553 130.131 183.237L131.982 187.076C132.084 187.444 132.502 187.526 132.685 187.475L136.924 187.091C137.525 187.122 138.228 187.52 138.381 188.072C138.533 188.623 138.318 189.276 137.635 189.663L133.802 191.517C133.436 191.619 133.354 192.037 133.404 192.221L133.788 196.467C133.757 197.069 133.359 197.772 132.809 197.925C132.258 198.078 131.606 197.863 131.22 197.179L129.368 193.34C129.267 192.972 128.849 192.89 128.666 192.941L124.426 193.325C123.825 193.294 123.123 192.896 122.97 192.344C122.818 191.793 123.032 191.14 123.715 190.753Z" fill="#808080"/>
<path d="M193.8 204.876L196.555 203.544C196.819 203.471 196.878 203.17 196.841 203.038L196.565 199.987C196.588 199.554 196.874 199.048 197.269 198.938C197.665 198.829 198.133 198.983 198.411 199.475L199.742 202.234C199.815 202.498 200.115 202.557 200.247 202.52L203.293 202.244C203.725 202.266 204.23 202.553 204.34 202.949C204.449 203.345 204.295 203.814 203.804 204.093L201.05 205.425C200.786 205.498 200.727 205.799 200.764 205.931L201.039 208.982C201.017 209.415 200.731 209.921 200.336 210.031C199.94 210.14 199.471 209.986 199.194 209.494L197.863 206.735C197.79 206.471 197.49 206.412 197.358 206.449L194.311 206.725C193.879 206.703 193.374 206.416 193.265 206.02C193.155 205.624 193.441 205.118 193.8 204.876Z" fill="#454850"/>
<path d="M40.5766 164.468L44.6615 164.098C45.015 164 45.2897 164.305 45.3386 164.482L47.1224 168.181C47.446 168.663 48.1232 169.048 48.6535 168.9C49.1838 168.753 49.6163 168.252 49.5973 167.495L49.2277 163.404C49.1298 163.05 49.4344 162.775 49.6112 162.726L53.3046 160.939C53.7859 160.615 54.1694 159.937 54.0226 159.406C53.8758 158.875 53.3754 158.441 52.6194 158.461L48.5345 158.831C48.181 158.929 47.9063 158.624 47.8574 158.447L46.0736 154.748C45.75 154.265 45.0728 153.881 44.5425 154.028C44.0122 154.175 43.5797 154.677 43.5987 155.434L43.9683 159.525C44.0662 159.879 43.7616 160.154 43.5848 160.203L39.8914 161.99C39.4101 162.314 39.0266 162.992 39.1734 163.523C39.3692 164.231 40.0463 164.615 40.5766 164.468Z" fill="#454850"/>
<path d="M18.7385 245.889L24.5141 245.366C25.014 245.227 25.4023 245.659 25.4715 245.909L27.9937 251.139C28.4512 251.821 29.4087 252.364 30.1585 252.156C30.9083 251.948 31.5198 251.239 31.4929 250.169L30.9704 244.384C30.832 243.884 31.2627 243.495 31.5126 243.425L36.7347 240.899C37.4153 240.441 37.9575 239.482 37.7499 238.731C37.5424 237.98 36.8349 237.368 35.7659 237.395L29.9903 237.918C29.4904 238.057 29.1021 237.625 29.0329 237.375L26.5107 232.145C26.0532 231.463 25.0957 230.92 24.3459 231.128C23.5961 231.336 22.9846 232.045 23.0115 233.115L23.534 238.9C23.6724 239.4 23.2417 239.789 22.9918 239.859L17.7697 242.385C17.0891 242.843 16.5469 243.802 16.7545 244.553C17.0312 245.554 17.9887 246.097 18.7385 245.889Z" fill="#808080"/>
<path d="M28.3303 99.0494L33.6556 98.5668C34.1165 98.439 34.4745 98.8367 34.5383 99.0675L36.8638 103.89C37.2857 104.518 38.1685 105.019 38.8598 104.827C39.5512 104.636 40.115 103.982 40.0902 102.995L39.6084 97.6617C39.4808 97.2001 39.8779 96.8415 40.1084 96.7776L44.9233 94.4485C45.5508 94.026 46.0508 93.1419 45.8594 92.4495C45.668 91.757 45.0157 91.1924 44.03 91.2171L38.7047 91.6997C38.2438 91.8275 37.8858 91.4298 37.822 91.199L35.4965 86.3767C35.0746 85.7482 34.1918 85.2474 33.5005 85.4391C32.8091 85.6308 32.2453 86.2842 32.2701 87.2713L32.7519 92.6048C32.8795 93.0664 32.4824 93.425 32.2519 93.4889L27.437 95.818C26.8095 96.2405 26.3095 97.1246 26.5009 97.8171C26.7561 98.7403 27.6389 99.2411 28.3303 99.0494Z" fill="#808080"/>
<path d="M253.849 207.996L261.108 210.587C261.788 210.698 262.016 211.435 261.961 211.776L262.094 219.493C262.267 220.57 263.12 221.76 264.14 221.927C265.161 222.095 266.292 221.581 266.855 220.274L269.442 213.004C269.554 212.323 270.29 212.094 270.63 212.15L278.335 212.016C279.411 211.843 280.598 210.989 280.766 209.967C280.933 208.945 280.42 207.812 279.115 207.248L271.857 204.657C271.176 204.545 270.948 203.808 271.004 203.467L270.87 195.751C270.697 194.673 269.844 193.484 268.824 193.316C267.804 193.149 266.672 193.662 266.109 194.969L263.522 202.239C263.41 202.92 262.674 203.149 262.334 203.093L254.629 203.227C253.553 203.4 252.366 204.255 252.199 205.276C251.976 206.639 252.829 207.828 253.849 207.996Z" fill="#808080"/>
<path d="M87.0539 125.562C86.3795 125.749 85.9841 126.449 86.1708 127.124C86.3575 127.8 87.0556 128.196 87.73 128.009C88.4044 127.822 88.7998 127.122 88.6131 126.447C88.4264 125.771 87.7283 125.375 87.0539 125.562Z" fill="#454850"/>
<path d="M130.667 157.449C129.993 157.636 129.597 158.335 129.784 159.011C129.971 159.686 130.669 160.082 131.343 159.895C132.018 159.708 132.413 159.009 132.226 158.334C132.04 157.658 131.342 157.262 130.667 157.449Z" fill="#454850"/>
<path d="M158.996 106.008C158.639 106.611 158.837 107.389 159.439 107.747C160.041 108.105 160.818 107.906 161.175 107.304C161.533 106.701 161.334 105.922 160.733 105.565C160.131 105.207 159.354 105.405 158.996 106.008Z" fill="#454850"/>
<path d="M118.114 81.6867C117.756 82.2893 117.955 83.0679 118.556 83.4257C119.158 83.7835 119.935 83.585 120.293 82.9823C120.65 82.3797 120.452 81.6011 119.85 81.2433C119.248 80.8855 118.471 81.084 118.114 81.6867Z" fill="#454850"/>
<path d="M45.1819 137.555C44.8247 138.158 45.0229 138.936 45.6247 139.294C46.2264 139.652 47.0038 139.453 47.361 138.85C47.7182 138.248 47.52 137.469 46.9183 137.111C46.3166 136.754 45.5392 136.952 45.1819 137.555Z" fill="#454850"/>
<path d="M50.4905 187.458C50.1333 188.06 50.3315 188.839 50.9332 189.197C51.535 189.554 52.3124 189.356 52.6696 188.753C53.0268 188.151 52.8286 187.372 52.2269 187.014C51.6251 186.657 50.8478 186.855 50.4905 187.458Z" fill="#454850"/>
<path d="M100.785 187.458C100.428 188.06 100.626 188.839 101.228 189.197C101.83 189.554 102.607 189.356 102.965 188.753C103.322 188.151 103.124 187.372 102.522 187.014C101.92 186.657 101.143 186.855 100.785 187.458Z" fill="#454850"/>
<path d="M64.3108 237.333C63.9536 237.936 64.1518 238.714 64.7536 239.072C65.3553 239.43 66.1327 239.231 66.4899 238.629C66.8471 238.026 66.6489 237.248 66.0472 236.89C65.4455 236.532 64.6681 236.731 64.3108 237.333Z" fill="#454850"/>
<path d="M97.7366 262.821C97.3794 263.424 97.5776 264.203 98.1793 264.56C98.7811 264.918 99.5585 264.72 99.9157 264.117C100.273 263.514 100.075 262.736 99.473 262.378C98.8712 262.02 98.0939 262.219 97.7366 262.821Z" fill="#454850"/>
<path d="M158.881 263.23C158.524 263.833 158.722 264.611 159.324 264.969C159.926 265.327 160.703 265.128 161.06 264.526C161.417 263.923 161.219 263.145 160.618 262.787C160.016 262.429 159.238 262.627 158.881 263.23Z" fill="#454850"/>
<path d="M201.426 225.214C201.069 225.816 201.267 226.595 201.869 226.953C202.471 227.31 203.248 227.112 203.605 226.509C203.962 225.907 203.764 225.128 203.162 224.77C202.561 224.412 201.783 224.611 201.426 225.214Z" fill="#454850"/>
<path d="M224.098 183.98C223.741 184.583 223.939 185.361 224.541 185.719C225.142 186.077 225.92 185.878 226.277 185.276C226.634 184.673 226.436 183.895 225.834 183.537C225.233 183.179 224.455 183.377 224.098 183.98Z" fill="#454850"/>
<path d="M198.496 120.669C198.139 121.271 198.337 122.05 198.939 122.408C199.541 122.765 200.318 122.567 200.675 121.964C201.033 121.362 200.834 120.583 200.233 120.225C199.631 119.867 198.854 120.066 198.496 120.669Z" fill="#454850"/>
<path d="M215.823 181.875L228.664 171.53L224.663 166.538L211.822 176.882L215.823 181.875Z" fill="#757575"/>
<path d="M297.815 139.639L272.068 107.198L211.912 156.299L237.66 188.741L297.815 139.639Z" fill="#535353" stroke="#757575" stroke-width="4.10715" stroke-miterlimit="10"/>
<path d="M255.18 177.964L226.121 139.514" stroke="#757575" stroke-width="4.10715" stroke-miterlimit="10"/>
<path d="M269.391 167.19L240.332 128.741" stroke="#757575" stroke-width="4.10715" stroke-miterlimit="10"/>
<path d="M283.6 156.417L254.541 117.968" stroke="#757575" stroke-width="4.10715" stroke-miterlimit="10"/>
<path d="M278.455 120.031L221.611 163.125" stroke="#757575" stroke-width="4.10715" stroke-miterlimit="10"/>
<path d="M288.158 132.868L231.314 175.962" stroke="#757575" stroke-width="4.10715" stroke-miterlimit="10"/>
<path d="M230.278 230.79C225.767 234.209 219.356 233.314 215.935 228.787L210.264 221.283C209.982 220.911 210.057 220.366 210.428 220.085L225.442 208.703C225.813 208.422 226.356 208.498 226.637 208.87L232.308 216.374C235.668 220.948 234.726 227.417 230.278 230.79Z" fill="#757575"/>
<path d="M194.771 153.722L165.793 175.69L205.632 228.403L205.679 228.465C205.679 228.465 205.679 228.465 205.726 228.527C207.382 230.589 215.135 227.345 223.105 221.302C231.076 215.26 236.236 208.714 234.766 206.512C234.766 206.512 234.766 206.512 234.719 206.45L234.672 206.388L194.833 153.675L194.771 153.722Z" fill="#535353"/>
<path d="M209.067 172.636L220.128 187.272L220.175 187.334L220.222 187.396C221.754 189.551 216.532 196.144 208.561 202.186C200.591 208.229 192.9 211.426 191.182 209.411L191.136 209.349L191.089 209.287L180.027 194.651C181.683 196.713 189.436 193.469 197.406 187.427C205.377 181.384 210.552 174.729 209.067 172.636Z" fill="#757575"/>
<path d="M197.113 128.289C203.917 136.777 197.056 153.644 181.767 165.956C166.478 178.269 148.502 181.403 141.699 172.916C141.658 172.864 141.617 172.813 141.575 172.761C141.534 172.71 141.452 172.607 141.41 172.555C139.282 169.106 149.56 156.766 164.591 144.662C179.622 132.557 193.899 125.207 196.76 127.981C196.801 128.033 196.884 128.136 196.925 128.187C196.99 128.135 197.031 128.187 197.113 128.289Z" fill="#757575"/>
<path d="M195.902 127.81L195.943 127.86C196.691 128.901 196.106 130.994 194.408 133.64C190.989 139.032 183.192 146.986 173.233 154.851C163.274 162.716 153.627 168.539 147.595 170.611C144.599 171.672 142.392 171.784 141.517 170.843L141.477 170.793C141.436 170.744 141.396 170.694 141.355 170.645C139.261 167.322 149.366 155.425 164.146 143.753C178.926 132.08 192.966 124.99 195.781 127.662C195.821 127.711 195.862 127.761 195.902 127.81Z" fill="#757575"/>
<path d="M194.478 134.237L194.518 134.286C191.116 139.616 183.356 147.479 173.445 155.255C163.535 163.031 153.935 168.789 147.932 170.838L147.891 170.789C147.851 170.74 147.811 170.691 147.811 170.691C146.027 167.898 154.684 157.718 167.309 147.813C179.997 137.857 191.982 131.841 194.397 134.139C194.397 134.139 194.437 134.188 194.478 134.237Z" fill="#535353"/>
<path d="M171.733 146.497C171.929 146.904 170.764 148.364 169.1 149.768C167.368 151.231 165.76 152.111 165.45 151.705L155.696 136.092L158.954 133.342L171.644 146.381L171.733 146.497Z" fill="#757575"/>
<path d="M158.127 135.219C160.177 133.528 160.777 130.799 159.467 129.123C158.157 127.447 155.433 127.46 153.383 129.15C151.332 130.841 150.732 133.57 152.042 135.246C153.352 136.922 156.076 136.91 158.127 135.219Z" fill="#757575"/>
<path d="M127.181 272.491L101.434 240.049L161.589 190.948L187.337 223.39L127.181 272.491Z" fill="#535353" stroke="#757575" stroke-width="4.10715" stroke-miterlimit="10"/>
<path d="M173.126 240.171L144.066 201.721" stroke="#757575" stroke-width="4.10715" stroke-miterlimit="10"/>
<path d="M158.915 250.944L129.855 212.495" stroke="#757575" stroke-width="4.10715" stroke-miterlimit="10"/>
<path d="M144.704 261.717L115.645 223.267" stroke="#757575" stroke-width="4.10715" stroke-miterlimit="10"/>
<path d="M111.137 246.879L167.98 203.785" stroke="#757575" stroke-width="4.10715" stroke-miterlimit="10"/>
<path d="M120.838 259.716L177.682 216.622" stroke="#757575" stroke-width="4.10715" stroke-miterlimit="10"/>
<path d="M183.398 197.875L170.557 208.219L174.557 213.212L187.399 202.867L183.398 197.875Z" fill="#757575"/>
<path d="M75.663 87.4745C75.0653 91.4655 72.4751 99.2479 67.8925 100.445C67.6933 100.445 67.4941 100.445 67.2948 100.645C62.9115 101.243 57.9304 98.2501 54.7426 96.0551C53.1486 94.8578 51.5547 93.461 50.16 92.0641C49.5623 91.4655 48.7653 90.6673 48.1676 90.0686C43.585 85.0799 39.9986 78.8939 37.807 72.3088C37.4085 70.912 37.01 69.5151 37.2092 68.1183C37.2092 67.7192 37.4085 67.5197 37.4085 67.3201C37.807 66.3224 38.6039 65.3246 39.7994 65.1251C40.7956 64.9255 41.5926 65.3246 42.5888 65.5242C43.585 65.9233 44.382 66.3224 45.3782 66.921C43.1865 64.3269 42.5888 59.9368 42.5888 56.744C42.5888 56.5445 42.5888 56.1454 42.788 56.1454C42.9873 55.9459 43.585 56.1454 43.7842 56.3449C46.9721 58.7395 46.9721 63.1296 48.3668 66.7215C48.3668 64.1273 48.5661 61.5332 48.5661 58.9391C48.5661 57.1431 48.7653 54.9481 50.16 53.7508C50.3592 53.5513 50.5585 53.5513 50.7577 53.5513C51.1562 53.5513 51.3554 53.9504 51.5547 54.1499C53.9456 58.3404 52.5509 63.5287 52.9494 68.3179C53.1486 70.1138 53.3479 71.9097 53.7464 73.7057C53.9456 74.5039 54.3441 76.2998 54.7426 78.0957C55.141 78.8939 55.5395 79.6921 56.1373 80.4903C56.3365 80.8894 56.735 81.2885 57.1335 81.4881C57.7312 82.0867 58.5282 82.6853 59.3251 83.284C60.9191 84.0822 62.513 84.6808 64.3062 85.0799C67.4941 85.6786 70.6819 85.6786 73.8698 85.8781C74.4675 85.8781 75.0653 86.0777 75.4637 86.4768C75.663 86.8759 75.663 87.0754 75.663 87.4745Z" fill="#949494"/>
<path d="M117.501 153.525C113.317 153.525 108.934 152.128 105.746 150.133C99.5692 146.142 95.7836 140.155 92.1973 134.768L99.1707 130.178C102.359 134.967 105.546 140.155 110.129 142.949C113.715 145.344 119.493 146.142 122.681 143.348C126.666 139.756 125.67 132.972 124.076 127.983C122.084 121.797 118.298 116.409 113.715 113.017L118.696 106.432C124.873 111.021 129.655 117.806 132.046 125.588C135.433 136.164 134.237 144.545 128.26 149.734C125.271 152.328 121.287 153.525 117.501 153.525Z" fill="#535353"/>
<path d="M126.067 87.2753C126.266 90.2685 125.27 93.2617 124.074 96.255C119.492 108.228 114.71 120.201 109.131 131.775C107.936 133.97 106.939 136.364 105.744 138.559C104.15 141.752 102.157 145.344 98.5711 146.142C95.5825 146.741 92.7931 145.344 90.203 143.947C89.406 143.548 88.609 142.949 88.2105 142.151C87.812 141.353 88.0113 140.355 88.2105 139.557C90.6014 127.584 95.184 116.409 99.7666 105.035C101.958 99.4477 104.349 93.6608 106.142 87.8739C107.537 83.883 108.533 78.6947 113.714 78.2956C118.495 78.0961 125.668 81.8875 126.067 87.2753Z" fill="#535353"/>
<path d="M70.4809 122.994C70.4809 123.393 70.4809 123.593 70.4809 123.992C70.2816 126.586 69.6839 128.981 68.2892 131.176C66.6953 133.57 64.3043 135.566 61.515 136.164C60.9172 136.364 60.3195 136.364 59.7218 136.364C57.1316 136.564 54.5415 135.765 52.1506 134.768C49.1619 133.57 46.1733 132.173 42.7862 131.974C40.993 131.774 39.1998 131.974 37.4067 132.373C36.4104 132.573 35.6135 132.972 34.6173 133.171C33.6211 133.57 32.6248 133.969 31.6286 134.368C28.2415 135.965 24.8544 138.16 21.4673 139.557C18.6779 140.754 15.2908 141.353 12.8999 139.557C11.7044 138.759 11.1067 137.362 10.509 136.164C7.12184 129.779 4.13321 123.393 1.14458 116.808C0.945336 116.609 0.746094 116.21 0.746094 115.81C0.746094 114.813 1.94155 114.015 2.73852 113.615C2.93776 113.416 3.137 113.416 3.33624 113.216C5.52791 112.219 7.52033 111.42 9.91123 111.021C12.5014 110.822 15.2908 111.221 17.084 113.017C18.2794 114.214 19.0764 115.611 19.8733 117.207C20.6703 119.003 21.6665 120.799 22.4635 122.595C24.8544 120.6 27.2453 118.604 29.8355 116.808C30.6324 116.21 31.4294 115.81 32.2264 115.411C33.621 114.613 35.215 113.815 36.8089 113.416C39.3991 112.418 42.1885 112.019 44.9779 111.82C46.3726 111.62 47.7672 111.42 49.1619 111.62C50.7559 111.62 52.3498 112.019 53.7445 112.219C57.5301 113.017 61.515 113.815 65.3006 114.613L61.1165 114.214C64.5036 115.012 68.4884 116.21 69.8831 119.402C70.4809 120.4 70.4809 121.797 70.4809 122.994Z" fill="#949494"/>
<path d="M55.7373 113.417C54.3426 118.804 55.538 124.591 58.9252 129.181C59.1244 129.38 59.3236 129.78 59.7221 129.58C59.9214 129.58 59.9214 129.38 60.1206 129.181C60.7183 127.784 60.9176 126.188 61.1168 124.791C61.5153 121.398 62.7108 116.011 61.5153 112.618C60.1206 109.426 56.335 110.822 55.7373 113.417Z" fill="#535353"/>
<path d="M80.4421 75.1019C78.8482 77.2969 76.8557 79.0929 75.0626 81.0884C64.5027 92.4626 59.5217 108.227 56.533 123.592C55.7361 127.583 55.3376 131.973 57.7285 134.966C58.924 136.363 60.5179 137.361 62.1118 138.159C64.702 139.556 67.0929 140.953 69.683 142.35C72.6717 143.946 75.8595 145.742 79.2467 145.942C83.2315 146.141 87.2163 144.146 90.205 141.352C93.1936 138.558 95.186 134.966 97.1785 131.375C102.16 122.195 106.742 112.817 110.727 103.238C111.922 100.445 113.118 97.4513 113.516 94.4581C114.114 90.068 113.118 85.678 112.321 81.4875C112.122 80.4897 111.922 79.2924 111.125 78.4942C110.129 77.4965 108.535 77.4965 107.34 77.696C98.5731 78.0951 89.6073 78.8933 81.2391 76.8978C79.4459 76.4987 77.4535 75.9001 76.4573 74.3037" fill="#949494"/>
<path d="M37.4091 132.572C36.4129 132.772 35.6159 133.171 34.6197 133.371C34.4205 130.577 34.022 127.384 33.225 124.391C32.428 121.797 31.4318 119.402 29.8379 117.008C30.6349 116.409 31.4318 116.01 32.2288 115.611C33.8227 118.205 35.0182 120.799 35.8152 123.593C36.6121 126.586 37.2098 129.779 37.4091 132.572Z" fill="#535353"/>
<path d="M64.504 128.581C63.707 130.577 64.1055 127.983 63.9062 130.377C63.9062 132.572 64.504 134.767 65.6994 136.763C68.0903 140.155 72.2744 142.151 76.2593 143.548C79.8456 144.745 83.6312 145.344 87.2176 143.548C91.6009 141.353 94.988 136.164 94.5895 131.176C94.1911 124.59 86.4206 121.198 80.6426 120.599C73.4699 119.801 69.8835 122.395 64.3047 126.586V128.581H64.504Z" fill="#535353"/>
<path d="M120.091 65.3251C120.091 65.5246 119.892 65.9237 119.892 66.1233C118.895 70.5133 117.7 74.7039 117.301 79.2935C117.102 81.289 117.501 84.8808 115.508 86.2777C113.914 87.2754 111.125 86.6768 109.332 86.6768C103.753 86.2777 98.3734 85.2799 92.5954 85.2799C92.1969 85.2799 91.7984 85.2799 91.2007 85.2799C89.2083 85.0804 87.4151 84.2822 85.8212 83.2844C83.6295 82.2867 81.6371 81.0894 79.4454 80.2912C77.6522 79.6926 75.6598 79.2935 74.6636 77.6971C73.4682 76.1007 73.4682 74.1052 73.2689 72.3093C72.6712 66.3228 72.8704 59.9373 74.4644 54.1504C75.4606 50.5585 77.453 46.9666 80.4416 44.3725C87.0166 38.386 97.5765 37.1887 105.745 41.1797C111.723 44.1729 116.903 49.3612 119.294 55.7467C120.29 58.5404 120.689 61.9328 120.091 65.3251Z" fill="#949494"/>
<path d="M120.091 65.3259C120.091 65.5254 119.892 65.9245 119.892 66.1241C118.896 70.5141 117.7 74.7047 117.302 79.2943C117.103 81.2898 117.501 84.8816 115.509 86.2785C113.915 87.2762 111.125 86.6776 109.332 86.6776C103.753 86.2785 98.3739 85.2807 92.5959 85.2807C92.1974 85.2807 91.7989 85.2807 91.2012 85.2807C93.5921 84.283 96.1822 84.283 98.7724 83.8839C106.941 82.4871 114.114 76.7001 117.302 69.1173C118.298 66.7227 118.896 64.1286 119.095 61.5345C119.294 59.539 119.294 57.5435 118.896 55.7476C120.291 58.5412 120.689 61.9336 120.091 65.3259Z" fill="#797979" stroke="#535353" stroke-width="5.06525" stroke-miterlimit="10" stroke-linecap="round" stroke-linejoin="round"/>
<path d="M102.161 81.889C99.9695 83.8845 97.3793 85.2813 94.5899 85.2813C89.8081 85.2813 84.8271 84.2836 80.4437 82.0885C79.049 81.2903 77.8536 80.4921 76.6581 79.6939C76.0604 79.0953 75.2634 78.4967 74.865 77.898C73.4703 76.3016 72.6733 74.5057 72.2748 72.3106C71.0794 67.721 71.8763 62.1337 73.4703 57.7436C75.2634 53.154 78.0528 51.3581 82.8346 51.1585C87.6165 50.7594 93.1952 52.3558 97.7778 54.5508C97.977 54.7504 98.1763 54.7504 98.3755 54.9499C100.368 55.9477 102.161 57.145 103.556 58.5418C110.33 64.7278 108.537 75.9025 102.161 81.889Z" fill="#D6D6D6"/>
<path d="M91.6 134.568C91.6 134.768 91.6 134.768 91.6 134.967C91.6 135.965 91.4007 136.763 91.0022 137.561C89.6076 141.353 85.6227 143.747 81.6379 144.945C77.653 146.142 73.4689 146.341 69.6833 147.539C66.4955 148.536 63.3076 149.933 60.9167 152.128C60.319 152.727 59.7212 153.126 59.3227 153.725C59.3227 153.924 59.1235 153.924 59.1235 154.124C54.7402 159.512 53.5447 167.294 48.3644 172.083C47.9659 172.482 47.5675 172.682 47.169 172.881C46.7705 172.881 46.372 172.682 45.9735 172.682C38.6016 169.489 31.8273 165.498 25.0531 161.308C24.0569 160.709 22.8614 159.911 22.2637 158.913C21.8652 158.115 21.8652 157.317 22.2637 156.518C23.2599 153.525 27.6432 149.933 29.6357 149.135C31.8273 148.337 34.4175 148.536 36.6091 149.335C38.8008 150.133 40.9925 151.53 42.7856 152.927C43.1841 150.133 43.9811 147.14 45.1766 144.545C45.575 143.747 45.9735 142.949 46.372 142.151C46.7705 141.353 47.3682 140.754 47.7667 139.956C48.9622 138.16 50.5561 136.564 52.15 135.167C54.3417 133.171 56.7326 131.375 59.1235 129.779C62.7099 127.384 66.4955 125.189 70.4803 124.192C71.078 123.992 71.6758 123.992 72.2735 123.792C76.2583 122.994 80.6417 123.593 84.4273 125.189C86.6189 125.987 88.6113 127.384 90.006 129.18C91.0022 130.577 91.6 132.573 91.6 134.568Z" fill="#949494"/>
<path d="M60.7167 152.128C60.1189 152.726 59.5212 153.126 59.1227 153.724C59.1227 153.924 58.9235 153.924 58.9235 154.123C56.5326 151.13 53.7432 148.735 50.5553 146.94C49.1606 146.141 47.5667 145.543 45.9728 144.944C45.7735 144.745 45.375 144.745 45.1758 144.545C45.5743 143.747 45.9728 142.949 46.3712 142.15C46.5705 142.15 46.7697 142.35 46.969 142.35C48.5629 142.949 50.3561 143.547 51.95 144.545C55.1379 146.341 58.3258 148.935 60.7167 152.128Z" fill="#535353"/>
<path d="M151.572 100.047C151.572 100.247 151.572 100.646 151.373 100.845C150.775 103.041 148.583 104.238 146.392 104.637C145.794 104.836 144.997 104.836 144.399 104.836C142.805 105.036 141.411 105.036 139.817 105.435C138.223 105.834 136.629 106.832 135.035 107.63C133.441 108.428 131.648 109.027 130.054 109.426C129.058 109.626 128.061 109.825 127.065 110.025C122.682 110.623 118.298 110.224 114.114 108.827C111.524 108.029 109.532 105.834 108.336 103.04C106.543 98.6504 106.942 93.0631 111.126 90.4689C116.505 87.0766 119.892 91.8658 124.276 93.8613C125.073 94.2604 125.87 94.4599 126.667 94.6595C127.663 94.859 128.659 94.859 129.655 94.859C131.847 94.6595 134.039 94.0608 136.031 93.0631C139.617 91.2671 142.805 88.4735 145.993 85.8793C146.591 85.4802 147.189 84.8816 147.986 85.0811C148.783 85.2807 149.181 86.2784 149.181 87.2762V87.4757C148.982 88.2739 148.583 89.0721 148.384 89.8703C147.986 93.4622 151.97 96.6549 151.572 100.047Z" fill="#949494"/>
<path d="M149.978 108.628L135.234 35.9925C135.035 35.1943 135.633 34.5956 136.231 34.3961C137.028 34.1965 137.625 34.7952 137.825 35.3938L152.568 108.029C152.768 108.828 152.17 109.426 151.572 109.626C150.975 109.825 150.178 109.227 149.978 108.628Z" fill="#797979" stroke="#535353" stroke-width="5.06525" stroke-miterlimit="10" stroke-linecap="round" stroke-linejoin="round"/>
<path d="M154.562 98.8498C154.363 98.2512 153.765 97.8521 153.168 97.8521L153.765 97.6525C154.761 97.2534 155.16 96.0561 154.761 95.0584C154.363 94.2602 153.367 93.8611 152.57 94.0606L152.968 93.8611C153.965 93.462 154.363 92.2647 153.965 91.267C153.765 90.6683 153.367 90.4688 152.769 90.2692C153.566 89.6706 153.965 88.6728 153.566 87.6751C153.168 86.6773 151.972 86.2783 150.976 86.6773L144.202 89.8701C143.205 90.2692 142.807 91.4665 143.205 92.4643C143.405 93.0629 143.803 93.2624 144.401 93.462C143.604 94.0606 143.205 95.0584 143.604 96.0561C144.002 96.8543 144.999 97.2534 145.796 97.0539L145.198 97.2534C144.202 97.6525 143.803 98.8498 144.202 99.8475C144.401 100.446 144.999 100.845 145.596 100.845C144.799 101.444 144.6 102.442 144.999 103.24C145.397 104.238 146.593 104.637 147.589 104.238L153.566 101.444C154.562 101.045 154.961 100.047 154.562 98.8498Z" fill="#626262"/>
<path opacity="0.4" d="M94.788 62.5317C93.991 63.729 92.3971 64.1281 91.2016 63.5294C90.8032 63.3299 90.2054 63.1303 89.8069 62.9308C84.2282 60.7358 78.2509 62.1326 76.657 66.3231C76.2585 67.3209 74.8638 67.1213 74.8638 66.1236C74.6645 64.7267 74.8638 63.1303 75.4615 61.7335C77.4539 56.3457 84.0289 53.9511 90.2054 56.3457C91.7994 56.9443 93.1941 57.9421 94.3895 58.9398C95.3857 59.9376 95.3857 61.3344 94.788 62.5317Z" fill="#797979"/>
<path opacity="0.4" d="M75.6608 93.0614C79.6456 95.0568 87.8146 97.651 92.7956 98.0501C93.7918 98.2496 94.1903 99.0478 93.9911 100.046C90.6039 108.027 87.8146 116.009 86.8183 119.003C86.6191 119.801 85.8221 120.2 85.2244 120C81.638 119.003 71.6759 116.209 67.6911 114.613C66.8941 114.413 66.6949 113.615 66.8941 112.817C70.2812 104.436 72.6721 97.0523 73.6684 93.8595C74.0668 93.0614 75.0631 92.6623 75.6608 93.0614Z" fill="#535353"/>
<path d="M130.254 109.225C129.258 109.425 128.262 109.624 127.266 109.824C125.672 107.429 124.676 104.237 124.875 101.044C125.074 99.2478 125.672 96.6537 126.867 94.6582C127.864 94.8578 128.86 94.8578 129.856 94.8578C128.66 96.6537 127.664 99.2478 127.465 101.243C127.266 104.237 128.461 107.429 130.254 109.225Z" fill="#535353"/>
<path d="M59.5228 83.2854C55.9365 85.6799 52.7486 88.6732 49.9592 92.0655C49.3615 91.4668 48.5645 90.6686 47.9668 90.07C50.5569 86.8772 53.7448 84.0835 57.1319 81.689L59.5228 83.2854Z" fill="#535353"/>
<g filter="url(#filter0_d_801_17764)">
<path d="M189.028 62.1321C170.299 55.9461 162.528 79.4928 143.401 69.5153L136.627 36.3903C157.348 45.1704 165.318 25.2156 182.253 29.007L189.028 62.1321Z" fill="url(#paint0_linear_801_17764)"/>
</g>
<defs>
<filter id="filter0_d_801_17764" x="80.9092" y="0.663074" width="163.836" height="154.927" filterUnits="userSpaceOnUse" color-interpolation-filters="sRGB">
<feFlood flood-opacity="0" result="BackgroundImageFix"/>
<feColorMatrix in="SourceAlpha" type="matrix" values="0 0 0 0 0 0 0 0 0 0 0 0 0 0 0 0 0 0 127 0" result="hardAlpha"/>
<feOffset dy="27.8589"/>
<feGaussianBlur stdDeviation="27.8589"/>
<feColorMatrix type="matrix" values="0 0 0 0 0.397708 0 0 0 0 0.47749 0 0 0 0 0.575 0 0 0 0.27 0"/>
<feBlend mode="normal" in2="BackgroundImageFix" result="effect1_dropShadow_801_17764"/>
<feBlend mode="normal" in="SourceGraphic" in2="effect1_dropShadow_801_17764" result="shape"/>
</filter>
<linearGradient id="paint0_linear_801_17764" x1="167.217" y1="90.1157" x2="124.47" y2="38.6118" gradientUnits="userSpaceOnUse">
<stop stop-color="#FB432C"/>
<stop offset="1" stop-color="#FF591E"/>
</linearGradient>
</defs>
</svg>
